# xmcd
#
# Track frame offsets:
#	150
#	23665
#	35873
#	51877
#	69013
#	85940
#	106516
#	120587
#	141668
#	157233
#	168907
#	183983
#
# Disc length: 2673 seconds
#
# Revision: 1
# Processed by: cddbd v1.5.2PL0 Copyright (c) Steve Scherf et al.
# Submitted via: audiograbber 1.83.01
#
DISCID=9c0a6f0c
DTITLE=riverside - simple life
DYEAR=2005
DGENRE=Country
TTITLE0=this fightings gotta stop
TTITLE1=lonesome highway
TTITLE2=simple life
TTITLE3=we've been rockin
TTITLE4=prettiest woman
TTITLE5=can't go back
TTITLE6=i got this funny feelin
TTITLE7=play all night
TTITLE8=don't know what to say
TTITLE9=headed on down the line
TTITLE10=if i ever will
TTITLE11=the system
EXTD=
EXTT0=
EXTT1=
EXTT2=
EXTT3=
EXTT4=
EXTT5=
EXTT6=
EXTT7=
EXTT8=
EXTT9=
EXTT10=
EXTT11=
PLAYORDER=
